<?xml version="1.0" standalone="no"?>
<!DOCTYPE svg PUBLIC "-//W3C//DTD SVG 20010904//EN"
 "http://www.w3.org/TR/2001/REC-SVG-20010904/DTD/svg10.dtd">
<svg version="1.0" xmlns="http://www.w3.org/2000/svg"
 width="32.000000pt" height="32.000000pt" viewBox="0 0 32.000000 32.000000"
 preserveAspectRatio="xMidYMid meet">

<g transform="translate(0.000000,32.000000) scale(0.100000,-0.100000)"
fill="#000000" stroke="none">
<path d="M25 295 c-24 -23 -25 -31 -25 -135 0 -107 1 -112 26 -135 25 -23 34
-25 136 -25 102 0 110 1 133 25 24 23 25 31 25 135 0 104 -1 112 -25 135 -23
24 -31 25 -135 25 -104 0 -112 -1 -135 -25z m195 -55 c0 -6 -27 -10 -60 -10
-33 0 -60 4 -60 10 0 6 27 10 60 10 33 0 60 -4 60 -10z m-122 -98 c2 -60 0
-72 -13 -72 -12 0 -15 14 -15 76 0 56 3 75 13 72 8 -3 13 -30 15 -76z m152 3
c0 -60 -3 -75 -15 -75 -12 0 -15 14 -15 68 0 38 3 72 7 75 17 18 23 1 23 -68z"/>
</g>
</svg>
